<svg width="45" height="45" viewBox="0 0 45 45" fill="none" xmlns="http://www.w3.org/2000/svg">
<path d="M11.25 35.625H16.875V26.25C16.875 25.7188 17.055 25.2738 17.415 24.915C17.775 24.5562 18.22 24.3762 18.75 24.375H26.25C26.7813 24.375 27.2269 24.555 27.5869 24.915C27.9469 25.275 28.1263 25.72 28.125 26.25V35.625H33.75V18.75L22.5 10.3125L11.25 18.75V35.625ZM7.5 35.625V18.75C7.5 18.1562 7.63312 17.5938 7.89937 17.0625C8.16562 16.5313 8.5325 16.0937 9 15.75L20.25 7.3125C20.9063 6.8125 21.6563 6.5625 22.5 6.5625C23.3438 6.5625 24.0938 6.8125 24.75 7.3125L36 15.75C36.4688 16.0937 36.8363 16.5313 37.1025 17.0625C37.3688 17.5938 37.5013 18.1562 37.5 18.75V35.625C37.5 36.6562 37.1325 37.5394 36.3975 38.2744C35.6625 39.0094 34.78 39.3763 33.75 39.375H26.25C25.7188 39.375 25.2738 39.195 24.915 38.835C24.5563 38.475 24.3763 38.03 24.375 37.5V28.125H20.625V37.5C20.625 38.0312 20.445 38.4769 20.085 38.8369C19.725 39.1969 19.28 39.3763 18.75 39.375H11.25C10.2188 39.375 9.33625 39.0081 8.6025 38.2744C7.86875 37.5406 7.50125 36.6575 7.5 35.625Z" fill="black"/>
</svg>
