<svg width="100" height="100" viewBox="0 0 100 100" fill="none" xmlns="http://www.w3.org/2000/svg">
<path d="M12.5 62.5H87.5M12.5 37.5H87.5M37.5 87.5V12.5M62.5 87.5V12.5M22.5 12.5H77.5C80.1522 12.5 82.6957 13.5536 84.5711 15.4289C86.4464 17.3043 87.5 19.8478 87.5 22.5V77.5C87.5 80.1522 86.4464 82.6957 84.5711 84.5711C82.6957 86.4464 80.1522 87.5 77.5 87.5H22.5C19.8478 87.5 17.3043 86.4464 15.4289 84.5711C13.5536 82.6957 12.5 80.1522 12.5 77.5V22.5C12.5 21.1868 12.7587 19.8864 13.2612 18.6732C13.7638 17.4599 14.5003 16.3575 15.4289 15.4289C17.3043 13.5536 19.8478 12.5 22.5 12.5Z" stroke="black" stroke-width="1.5" stroke-miterlimit="10" stroke-linecap="round" stroke-linejoin="round"/>
</svg>
