<svg width="30" height="32" viewBox="0 0 30 32" fill="none" xmlns="http://www.w3.org/2000/svg">
<path d="M21.5625 1.875C26.3062 1.875 30 5.98929 30 11.775C30 18.7393 24.7313 25.5536 16.1813 31.3821C15.8381 31.6286 15.3431 31.875 15 31.875C14.6756 31.875 14.1619 31.6286 13.8187 31.3821C5.26875 25.5536 0 18.7393 0 11.775C0 5.98929 3.69375 1.875 8.4375 1.875C11.4375 1.875 13.6125 3.66214 15 6.31071C16.3912 3.63214 18.5625 1.875 21.5625 1.875ZM21.5625 4.01786C19.425 4.01786 17.775 5.18357 16.6125 7.40357L14.9963 10.5107L13.3894 7.40357C12.2456 5.19643 10.5769 4.01786 8.43937 4.01786C4.67062 4.01786 1.87688 7.23214 1.87688 11.775C1.87688 17.5607 6.39563 23.8393 14.8144 29.5607L14.9381 29.64L14.9944 29.6743L15.1406 29.5886L15.2194 29.535C23.6006 23.8136 28.1194 17.5564 28.1194 11.7707C28.1194 7.22786 25.3256 4.01357 21.5569 4.01357L21.5625 4.01786Z" fill="black"/>
</svg>
