<svg width="50" height="50" viewBox="0 0 50 50" fill="none" xmlns="http://www.w3.org/2000/svg">
<path d="M12.5002 39.5833H18.7502V29.1667C18.7502 28.5764 18.9502 28.082 19.3502 27.6833C19.7502 27.2847 20.2446 27.0847 20.8335 27.0833H29.1668C29.7571 27.0833 30.2522 27.2833 30.6522 27.6833C31.0522 28.0833 31.2516 28.5778 31.2502 29.1667V39.5833H37.5002V20.8333L25.0002 11.4583L12.5002 20.8333V39.5833ZM8.3335 39.5833V20.8333C8.3335 20.1736 8.48141 19.5486 8.77725 18.9583C9.07308 18.3681 9.48072 17.8819 10.0002 17.5L22.5002 8.12501C23.2293 7.56945 24.0627 7.29167 25.0002 7.29167C25.9377 7.29167 26.771 7.56945 27.5002 8.12501L40.0002 17.5C40.521 17.8819 40.9293 18.3681 41.2252 18.9583C41.521 19.5486 41.6682 20.1736 41.6668 20.8333V39.5833C41.6668 40.7292 41.2585 41.7104 40.4418 42.5271C39.6252 43.3438 38.6446 43.7514 37.5002 43.75H29.1668C28.5766 43.75 28.0821 43.55 27.6835 43.15C27.2849 42.75 27.0849 42.2556 27.0835 41.6667V31.25H22.9168V41.6667C22.9168 42.257 22.7168 42.7521 22.3168 43.1521C21.9168 43.5521 21.4224 43.7514 20.8335 43.75H12.5002C11.3543 43.75 10.3738 43.3424 9.5585 42.5271C8.74322 41.7118 8.33488 40.7306 8.3335 39.5833Z" fill="black"/>
</svg>
