<svg width="30" height="31" viewBox="0 0 30 31" fill="none" xmlns="http://www.w3.org/2000/svg">
<path d="M21.5625 0.875C26.3062 0.875 30 4.98929 30 10.775C30 17.7393 24.7313 24.5536 16.1812 30.3821C15.8381 30.6286 15.3431 30.875 15 30.875C14.6756 30.875 14.1619 30.6286 13.8187 30.3821C5.26875 24.5536 0 17.7393 0 10.775C0 4.98929 3.69375 0.875 8.4375 0.875C11.4375 0.875 13.6125 2.66214 15 5.31071C16.3913 2.63214 18.5625 0.875 21.5625 0.875ZM21.5625 3.01786C19.425 3.01786 17.775 4.18357 16.6125 6.40357L14.9963 9.51071L13.3894 6.40357C12.2456 4.19643 10.5769 3.01786 8.43937 3.01786C4.67062 3.01786 1.87688 6.23214 1.87688 10.775C1.87688 16.5607 6.39563 22.8393 14.8144 28.5607L14.9381 28.64L14.9944 28.6743L15.1406 28.5886L15.2194 28.535C23.6006 22.8136 28.1194 16.5564 28.1194 10.7707C28.1194 6.22786 25.3256 3.01357 21.5569 3.01357L21.5625 3.01786Z" fill="black"/>
</svg>
