<svg width="40" height="41" viewBox="0 0 40 41" fill="none" xmlns="http://www.w3.org/2000/svg">
<path d="M28.75 0.5C35.075 0.5 40 5.98571 40 13.7C40 22.9857 32.975 32.0714 21.575 39.8429C21.1175 40.1714 20.4575 40.5 20 40.5C19.5675 40.5 18.8825 40.1714 18.425 39.8429C7.025 32.0714 0 22.9857 0 13.7C0 5.98571 4.925 0.5 11.25 0.5C15.25 0.5 18.15 2.88286 20 6.41429C21.855 2.84286 24.75 0.5 28.75 0.5ZM28.75 3.35714C25.9 3.35714 23.7 4.91143 22.15 7.87143L19.995 12.0143L17.8525 7.87143C16.3275 4.92857 14.1025 3.35714 11.2525 3.35714C6.2275 3.35714 2.5025 7.64286 2.5025 13.7C2.5025 21.4143 8.5275 29.7857 19.7525 37.4143L19.9175 37.52L19.9925 37.5657L20.1875 37.4514L20.2925 37.38C31.4675 29.7514 37.4925 21.4086 37.4925 13.6943C37.4925 7.63714 33.7675 3.35143 28.7425 3.35143L28.75 3.35714Z" fill="black"/>
</svg>
